<mxfile host="app.diagrams.net" modified="2024-01-09T10:59:56.842Z" agent="Mozilla/5.0 (Windows NT 10.0; Win64; x64) AppleWebKit/537.36 (KHTML, like Gecko) Chrome/120.0.0.0 Safari/537.36" etag="ZgDAjLGkxPsDjkxK1rjD" version="22.1.17" type="github" pages="2">
  <diagram name="系统逻辑分层组件视图" id="ts1mlfaZqgR7DDF70TvN">
    <mxGraphModel dx="819" dy="426" grid="1" gridSize="10" guides="1" tooltips="1" connect="1" arrows="1" fold="1" page="1" pageScale="1" pageWidth="827" pageHeight="1169" math="0" shadow="0">
      <root>
        <mxCell id="0" />
        <mxCell id="1" parent="0" />
        <mxCell id="CSi7sFmbqDeR1GMIAVVv-34" value="" style="group" vertex="1" connectable="0" parent="1">
          <mxGeometry x="39" y="330" width="511" height="95" as="geometry" />
        </mxCell>
        <mxCell id="CSi7sFmbqDeR1GMIAVVv-14" value="" style="group;fillColor=#eeeeee;strokeColor=none;fontSize=10;" vertex="1" connectable="0" parent="CSi7sFmbqDeR1GMIAVVv-34">
          <mxGeometry width="510" height="30" as="geometry" />
        </mxCell>
        <mxCell id="CSi7sFmbqDeR1GMIAVVv-7" value="" style="rounded=1;whiteSpace=wrap;html=1;fillColor=#eeeeee;strokeColor=none;fontSize=10;" vertex="1" parent="CSi7sFmbqDeR1GMIAVVv-14">
          <mxGeometry width="500" height="30" as="geometry" />
        </mxCell>
        <mxCell id="CSi7sFmbqDeR1GMIAVVv-2" value="业务应用" style="rounded=1;whiteSpace=wrap;html=1;fillColor=#f9f7ed;strokeColor=default;fontSize=10;" vertex="1" parent="CSi7sFmbqDeR1GMIAVVv-14">
          <mxGeometry x="9.81" y="3.75" width="70.19" height="22.5" as="geometry" />
        </mxCell>
        <mxCell id="CSi7sFmbqDeR1GMIAVVv-5" value="输电业务应用" style="rounded=1;whiteSpace=wrap;html=1;fillColor=#cce5ff;strokeColor=none;fontSize=10;" vertex="1" parent="CSi7sFmbqDeR1GMIAVVv-14">
          <mxGeometry x="137.3076923076923" y="3.75" width="78.46153846153845" height="22.5" as="geometry" />
        </mxCell>
        <mxCell id="CSi7sFmbqDeR1GMIAVVv-6" value="配电业务应用" style="rounded=1;whiteSpace=wrap;html=1;fillColor=#cce5ff;strokeColor=none;fontSize=10;" vertex="1" parent="CSi7sFmbqDeR1GMIAVVv-14">
          <mxGeometry x="255" y="3.75" width="78.46153846153845" height="22.5" as="geometry" />
        </mxCell>
        <mxCell id="CSi7sFmbqDeR1GMIAVVv-10" value="......" style="rounded=1;whiteSpace=wrap;html=1;fillColor=#cce5ff;strokeColor=none;fontSize=10;" vertex="1" parent="CSi7sFmbqDeR1GMIAVVv-14">
          <mxGeometry x="382.5" y="3.75" width="78.46153846153845" height="22.5" as="geometry" />
        </mxCell>
        <mxCell id="CSi7sFmbqDeR1GMIAVVv-16" value="" style="group;fontSize=10;" vertex="1" connectable="0" parent="CSi7sFmbqDeR1GMIAVVv-34">
          <mxGeometry y="37" width="310" height="25" as="geometry" />
        </mxCell>
        <mxCell id="CSi7sFmbqDeR1GMIAVVv-13" value="" style="rounded=1;whiteSpace=wrap;html=1;fillColor=#eeeeee;strokeColor=none;fontSize=10;" vertex="1" parent="CSi7sFmbqDeR1GMIAVVv-16">
          <mxGeometry width="310" height="25" as="geometry" />
        </mxCell>
        <mxCell id="CSi7sFmbqDeR1GMIAVVv-15" value="" style="group;fontSize=10;" vertex="1" connectable="0" parent="CSi7sFmbqDeR1GMIAVVv-16">
          <mxGeometry x="8.857142857142858" y="3.125" width="292.2857142857143" height="18.75" as="geometry" />
        </mxCell>
        <mxCell id="CSi7sFmbqDeR1GMIAVVv-3" value="企业中台" style="rounded=1;whiteSpace=wrap;html=1;fillColor=#f9f7ed;strokeColor=#36393d;fontSize=10;" vertex="1" parent="CSi7sFmbqDeR1GMIAVVv-15">
          <mxGeometry width="70.85714285714286" height="18.75" as="geometry" />
        </mxCell>
        <mxCell id="CSi7sFmbqDeR1GMIAVVv-11" value="业务中台" style="rounded=1;whiteSpace=wrap;html=1;fillColor=#cce5ff;strokeColor=none;fontSize=10;" vertex="1" parent="CSi7sFmbqDeR1GMIAVVv-15">
          <mxGeometry x="115.14285714285714" width="70.85714285714286" height="18.75" as="geometry" />
        </mxCell>
        <mxCell id="CSi7sFmbqDeR1GMIAVVv-12" value="数据中台" style="rounded=1;whiteSpace=wrap;html=1;fillColor=#cce5ff;strokeColor=none;fontSize=10;" vertex="1" parent="CSi7sFmbqDeR1GMIAVVv-15">
          <mxGeometry x="221.42857142857142" width="70.85714285714286" height="18.75" as="geometry" />
        </mxCell>
        <mxCell id="CSi7sFmbqDeR1GMIAVVv-33" value="" style="group" vertex="1" connectable="0" parent="CSi7sFmbqDeR1GMIAVVv-34">
          <mxGeometry x="10" y="71" width="510" height="25" as="geometry" />
        </mxCell>
        <mxCell id="CSi7sFmbqDeR1GMIAVVv-22" value="" style="rounded=1;whiteSpace=wrap;html=1;fillColor=#eeeeee;strokeColor=none;container=0;fontSize=10;" vertex="1" parent="CSi7sFmbqDeR1GMIAVVv-33">
          <mxGeometry x="-10" width="520" height="25" as="geometry" />
        </mxCell>
        <mxCell id="CSi7sFmbqDeR1GMIAVVv-27" value="非结构化平台" style="rounded=1;whiteSpace=wrap;html=1;fillColor=#cce5ff;strokeColor=none;container=0;fontSize=10;" vertex="1" parent="CSi7sFmbqDeR1GMIAVVv-33">
          <mxGeometry x="415.4" y="3.1299999999999955" width="83.6" height="18.75" as="geometry" />
        </mxCell>
        <mxCell id="CSi7sFmbqDeR1GMIAVVv-24" value="管理中台" style="rounded=1;whiteSpace=wrap;html=1;fillColor=#f9f7ed;strokeColor=#36393d;container=0;fontSize=10;" vertex="1" parent="CSi7sFmbqDeR1GMIAVVv-33">
          <mxGeometry x="-2.998571428571429" y="3.125" width="71.4" height="18.75" as="geometry" />
        </mxCell>
        <mxCell id="CSi7sFmbqDeR1GMIAVVv-26" value="统一视频平台" style="rounded=1;whiteSpace=wrap;html=1;fillColor=#cce5ff;strokeColor=none;container=0;fontSize=10;" vertex="1" parent="CSi7sFmbqDeR1GMIAVVv-33">
          <mxGeometry x="225" y="3.1299999999999955" width="74" height="18.75" as="geometry" />
        </mxCell>
        <mxCell id="CSi7sFmbqDeR1GMIAVVv-25" value="物联管理平台" style="rounded=1;whiteSpace=wrap;html=1;fillColor=#cce5ff;strokeColor=none;container=0;fontSize=10;" vertex="1" parent="CSi7sFmbqDeR1GMIAVVv-33">
          <mxGeometry x="131" y="2" width="66.67184345395248" height="20.000000000000004" as="geometry" />
        </mxCell>
        <mxCell id="CSi7sFmbqDeR1GMIAVVv-31" value="人工智能平台" style="rounded=1;whiteSpace=wrap;html=1;fillColor=#cce5ff;strokeColor=none;container=0;fontSize=10;" vertex="1" parent="CSi7sFmbqDeR1GMIAVVv-33">
          <mxGeometry x="319" y="3.6200000000000045" width="74" height="18.75" as="geometry" />
        </mxCell>
        <mxCell id="CSi7sFmbqDeR1GMIAVVv-58" value="" style="shape=flexArrow;endArrow=classic;startArrow=classic;html=1;rounded=0;endWidth=2.3975993998499625;endSize=2.9530201342281877;startWidth=2.3975993998499625;startSize=3.9144186046511624;width=3.225806451612903;exitX=0.443;exitY=-0.031;exitDx=0;exitDy=0;exitPerimeter=0;" edge="1" parent="CSi7sFmbqDeR1GMIAVVv-34" source="CSi7sFmbqDeR1GMIAVVv-31">
          <mxGeometry width="100" height="100" relative="1" as="geometry">
            <mxPoint x="361" y="111.94999999999999" as="sourcePoint" />
            <mxPoint x="361.48" y="30" as="targetPoint" />
          </mxGeometry>
        </mxCell>
        <mxCell id="CSi7sFmbqDeR1GMIAVVv-35" value="&lt;b&gt;电力光纤、无线专网、Internet&lt;/b&gt;" style="ellipse;shape=cloud;whiteSpace=wrap;html=1;fillColor=#eeeeee;strokeColor=#36393d;" vertex="1" parent="1">
          <mxGeometry x="40" y="500" width="540" height="20" as="geometry" />
        </mxCell>
        <mxCell id="CSi7sFmbqDeR1GMIAVVv-36" value="" style="shape=curlyBracket;whiteSpace=wrap;html=1;rounded=1;labelPosition=left;verticalLabelPosition=middle;align=right;verticalAlign=middle;allowArrows=1;cloneable=1;rotatable=1;" vertex="1" parent="1">
          <mxGeometry x="29" y="337.5" width="10" height="80" as="geometry" />
        </mxCell>
        <mxCell id="CSi7sFmbqDeR1GMIAVVv-38" value="" style="rounded=1;whiteSpace=wrap;html=1;fillColor=#eeeeee;strokeColor=none;container=0;fontSize=10;" vertex="1" parent="1">
          <mxGeometry x="110" y="450" width="410" height="25" as="geometry" />
        </mxCell>
        <mxCell id="CSi7sFmbqDeR1GMIAVVv-45" value="&lt;font color=&quot;#ff0000&quot;&gt;&lt;b&gt;评测工具&lt;/b&gt;&lt;/font&gt;" style="rounded=1;whiteSpace=wrap;html=1;fillColor=#cce5ff;strokeColor=none;container=0;fontSize=10;" vertex="1" parent="1">
          <mxGeometry x="119.00118341357353" y="452.95" width="47.57881658642646" height="19.102196752626554" as="geometry" />
        </mxCell>
        <mxCell id="CSi7sFmbqDeR1GMIAVVv-47" value="&lt;b style=&quot;&quot;&gt;&lt;font color=&quot;#1a1a1a&quot;&gt;评测任务&lt;/font&gt;&lt;/b&gt;" style="rounded=1;whiteSpace=wrap;html=1;fillColor=#cce5ff;strokeColor=none;container=0;fontSize=10;" vertex="1" parent="1">
          <mxGeometry x="174" y="453.95" width="58" height="19.1" as="geometry" />
        </mxCell>
        <mxCell id="CSi7sFmbqDeR1GMIAVVv-48" value="&lt;font color=&quot;#1a1a1a&quot;&gt;&lt;b&gt;评测设备管理&lt;/b&gt;&lt;/font&gt;" style="rounded=1;whiteSpace=wrap;html=1;fillColor=#cce5ff;strokeColor=none;container=0;fontSize=10;" vertex="1" parent="1">
          <mxGeometry x="244" y="452.95" width="66" height="19.1" as="geometry" />
        </mxCell>
        <mxCell id="CSi7sFmbqDeR1GMIAVVv-49" value="&lt;font color=&quot;#1a1a1a&quot;&gt;&lt;b&gt;样本管理&lt;/b&gt;&lt;/font&gt;" style="rounded=1;whiteSpace=wrap;html=1;fillColor=#cce5ff;strokeColor=none;container=0;fontSize=10;" vertex="1" parent="1">
          <mxGeometry x="319" y="452.95000000000005" width="70" height="19.1" as="geometry" />
        </mxCell>
        <mxCell id="CSi7sFmbqDeR1GMIAVVv-50" value="&lt;font color=&quot;#1a1a1a&quot;&gt;&lt;b&gt;应用管理&lt;/b&gt;&lt;/font&gt;" style="rounded=1;whiteSpace=wrap;html=1;fillColor=#cce5ff;strokeColor=none;container=0;fontSize=10;" vertex="1" parent="1">
          <mxGeometry x="395" y="452.95" width="48" height="19.1" as="geometry" />
        </mxCell>
        <mxCell id="CSi7sFmbqDeR1GMIAVVv-53" value="&lt;font color=&quot;#1a1a1a&quot;&gt;&lt;b&gt;算法模型管理&lt;/b&gt;&lt;/font&gt;" style="rounded=1;whiteSpace=wrap;html=1;fillColor=#cce5ff;strokeColor=none;container=0;fontSize=10;" vertex="1" parent="1">
          <mxGeometry x="450" y="452.9" width="69" height="19.1" as="geometry" />
        </mxCell>
        <mxCell id="CSi7sFmbqDeR1GMIAVVv-54" value="" style="shape=flexArrow;endArrow=classic;startArrow=classic;html=1;rounded=0;endWidth=2.3975993998499625;endSize=2.9530201342281877;startWidth=2.3975993998499625;startSize=3.9144186046511624;width=3.225806451612903;" edge="1" parent="1">
          <mxGeometry width="100" height="100" relative="1" as="geometry">
            <mxPoint x="262" y="452" as="sourcePoint" />
            <mxPoint x="262" y="422" as="targetPoint" />
          </mxGeometry>
        </mxCell>
        <mxCell id="CSi7sFmbqDeR1GMIAVVv-56" value="" style="shape=flexArrow;endArrow=classic;startArrow=classic;html=1;rounded=0;endWidth=2.3975993998499625;endSize=2.9530201342281877;startWidth=2.3975993998499625;startSize=3.9144186046511624;width=3.225806451612903;" edge="1" parent="1">
          <mxGeometry width="100" height="100" relative="1" as="geometry">
            <mxPoint x="455.52" y="451.95" as="sourcePoint" />
            <mxPoint x="455.52" y="421.95" as="targetPoint" />
          </mxGeometry>
        </mxCell>
        <mxCell id="CSi7sFmbqDeR1GMIAVVv-57" value="" style="shape=flexArrow;endArrow=classic;startArrow=classic;html=1;rounded=0;endWidth=2.3975993998499625;endSize=2.9530201342281877;startWidth=2.3975993998499625;startSize=3.9144186046511624;width=3.225806451612903;" edge="1" parent="1">
          <mxGeometry width="100" height="100" relative="1" as="geometry">
            <mxPoint x="317" y="502.05" as="sourcePoint" />
            <mxPoint x="317" y="472.05" as="targetPoint" />
          </mxGeometry>
        </mxCell>
        <mxCell id="CSi7sFmbqDeR1GMIAVVv-60" value="" style="shape=curlyBracket;whiteSpace=wrap;html=1;rounded=1;labelPosition=left;verticalLabelPosition=middle;align=right;verticalAlign=middle;allowArrows=1;cloneable=1;rotatable=1;" vertex="1" parent="1">
          <mxGeometry x="29" y="450" width="10" height="80" as="geometry" />
        </mxCell>
        <mxCell id="CSi7sFmbqDeR1GMIAVVv-61" value="" style="shape=curlyBracket;whiteSpace=wrap;html=1;rounded=1;labelPosition=left;verticalLabelPosition=middle;align=right;verticalAlign=middle;allowArrows=1;cloneable=1;rotatable=1;" vertex="1" parent="1">
          <mxGeometry x="29" y="545" width="11" height="135" as="geometry" />
        </mxCell>
        <mxCell id="CSi7sFmbqDeR1GMIAVVv-63" value="云" style="text;html=1;strokeColor=none;fillColor=none;align=center;verticalAlign=middle;whiteSpace=wrap;rounded=0;" vertex="1" parent="1">
          <mxGeometry y="362.5" width="29" height="30" as="geometry" />
        </mxCell>
        <mxCell id="CSi7sFmbqDeR1GMIAVVv-64" value="管" style="text;html=1;strokeColor=none;fillColor=none;align=center;verticalAlign=middle;whiteSpace=wrap;rounded=0;" vertex="1" parent="1">
          <mxGeometry y="480" width="29" height="30" as="geometry" />
        </mxCell>
        <mxCell id="CSi7sFmbqDeR1GMIAVVv-65" value="边 &lt;br&gt;端" style="text;html=1;strokeColor=none;fillColor=none;align=center;verticalAlign=middle;whiteSpace=wrap;rounded=0;" vertex="1" parent="1">
          <mxGeometry y="597.5" width="34" height="30" as="geometry" />
        </mxCell>
        <mxCell id="CSi7sFmbqDeR1GMIAVVv-66" value="" style="rounded=0;whiteSpace=wrap;html=1;strokeColor=default;dashed=1;fillColor=none;" vertex="1" parent="1">
          <mxGeometry x="126.58" y="570" width="140" height="120" as="geometry" />
        </mxCell>
        <mxCell id="CSi7sFmbqDeR1GMIAVVv-67" value="输电场景" style="text;html=1;strokeColor=none;fillColor=none;align=center;verticalAlign=middle;whiteSpace=wrap;rounded=0;" vertex="1" parent="1">
          <mxGeometry x="166.58" y="550" width="60" height="20" as="geometry" />
        </mxCell>
        <mxCell id="CSi7sFmbqDeR1GMIAVVv-68" value="" style="rounded=0;whiteSpace=wrap;html=1;strokeColor=default;dashed=1;fillColor=none;" vertex="1" parent="1">
          <mxGeometry x="352" y="570" width="140" height="120" as="geometry" />
        </mxCell>
        <mxCell id="CSi7sFmbqDeR1GMIAVVv-69" value="配电场景" style="text;html=1;strokeColor=none;fillColor=none;align=center;verticalAlign=middle;whiteSpace=wrap;rounded=0;" vertex="1" parent="1">
          <mxGeometry x="382" y="550" width="60" height="20" as="geometry" />
        </mxCell>
        <mxCell id="CSi7sFmbqDeR1GMIAVVv-70" value="" style="shape=flexArrow;endArrow=classic;startArrow=classic;html=1;rounded=0;endWidth=2.3975993998499625;endSize=2.9530201342281877;startWidth=2.3975993998499625;startSize=3.9144186046511624;width=3.225806451612903;" edge="1" parent="1">
          <mxGeometry width="100" height="100" relative="1" as="geometry">
            <mxPoint x="192" y="550.05" as="sourcePoint" />
            <mxPoint x="192" y="520.05" as="targetPoint" />
          </mxGeometry>
        </mxCell>
        <mxCell id="CSi7sFmbqDeR1GMIAVVv-71" value="" style="shape=flexArrow;endArrow=classic;startArrow=classic;html=1;rounded=0;endWidth=2.3975993998499625;endSize=2.9530201342281877;startWidth=2.3975993998499625;startSize=3.9144186046511624;width=3.225806451612903;" edge="1" parent="1">
          <mxGeometry width="100" height="100" relative="1" as="geometry">
            <mxPoint x="411" y="551.05" as="sourcePoint" />
            <mxPoint x="411" y="521.05" as="targetPoint" />
          </mxGeometry>
        </mxCell>
        <mxCell id="CSi7sFmbqDeR1GMIAVVv-78" value="" style="shape=image;verticalLabelPosition=bottom;labelBackgroundColor=default;verticalAlign=top;aspect=fixed;imageAspect=0;image=data:image/png,iVBORw0KGgoAAAANSUhEUgAAADIAAAAjCAYAAADWtVmPAAAAAXNSR0IArs4c6QAAAARnQU1BAACxjwv8YQUAAAAJcEhZcwAADsMAAA7DAcdvqGQAAA0FSURBVFhH3Vh3bJzlGf/d+M6+8zjH+xzHK+fJ2QnxSGySQARtSkoHU6VAykwHgoBaqSoqmKWKClBEkSiiQoWW0pKSQoYS0hBIShgZZNlJnHje+Xx3Huezb+/r87zfd06MqNpK5h8e3/fu8XveZ7zPa/y/NGIbeWxszPkrpfpf6eZb79xy4tSx1PmhoY0Tnql7xsfty2dmZsw2m02fSqU0/8u3detWztXd3d1qXpPbxOKXkErJ5xFPtFgsxZ/39OS2NjdPXZiejhZXVMTLqS+RSjySpdeHwuHoFh5rp4/be8Ph5Ia6ugi3XUpOpyOVkSkhEo4wAPAfk4oyrkMlQ+AsNQdHdREYDxQ1zomPVBI7du7Ant1bF23ffnCGhzDNjWeihbWjdlsspUpgcHgY2z/Yg4A3CGToUZCbhZDXj0QkDq1aDV2mjtaVUFpUgM72DpSXlcNqs0GTmVXb1do6wOt1P/+S/+6b12epVWokUwneQDAiYAl+RCLKghEuyE0KMoWBFOVzDDGp4Bx3PNO16qo5zRCiStPQ8GAoibiYu/fQx8jRZqKwwAjzkjK0NjVgxfLlsLRejpbWZWi8rB6LSgrgcU/i7W1/g8PpQGXlEpQV5ff/89NPa3m9RCSmFuAUQCk6TVkSaYCc0emn8XF9HvGY9Nh0LibB6/XPGz3HyODgYMms16tN0sBEMoG7b7oJ5toGLDNbUG6qQk2VGdVlJiwpLMDSiio0VJuxfs1qLG9pwcqOdphKS2SghLQ8P/cCr5mh0Yq1hTop28qqxVKRt04hKffRpyLJqQRXysftXOSEc6XOxWQ8Pk+N5xjJygIKCvNpBI2mn1YnYe3KlQSyA12XN0OCFom4CgadAeqkCqXFZcjLzkNbawdWdaxWNgS2vb0N0UhYlLMMlPDmcqJkxAIBFipGoMWn5pygMBPMDKmuKHJfGjkdcJpJXoaqw7xamrhHkMs1WBKMpFy8G0uP57BaBAJBvLDlBex9bz9twIupodVKxFQUzz73DNpXdijqK7YUuWfag9KSEkyS2uVk50BNwJLJuNzPKsLHxzlJUJAyV7Ee8eNEZHNtcp1rPN5qHb3yyiuv/hdXmeYkIpM8lXNWsXPn+rB2zdXExD7o9RnQZWQi22jkXuTlLcIfXvkjbrzhB4JheeOLudVuRU6WnvYUW5MU2GPSdho1lUnlxMlroCb1Y0ZFH0uCofKP+0VRwSQ3E/8ihUYTHRftCglGtvz+r1UGQ34nLyJD4cEqvPbqG7QptVI1EovBkGvE2lUdxJAevnAYrnEXAj4fjh8/QaN5HM9jonUS5DTEOkxU53WEynCZWnhnZTzbC/cJMIIBeZxQNw0dwJzqye2U0EEumRWTFRJzJ+zHh19+5eV3nC4ntHxCPJbYSc5OwmRaTPZiQCKRhN/jwdvv7sQ0qQ55BISiMSRpUa+X16QjoB8zJEkaOB2jsI+NyBsTiYw+hktwuKgcktIvUrqXJtwYo8/mmoLVMQmHaxquiRk43bNwTM3ANeVVRs4nwcj+fXt2BnxunO87i4MHDtDiajoILWaTGkxNjZM2JCGRSpiX1qCyqgIFBfmoqzWTnSSInyRySFJCuxQ0GrUWPu8Mxl0kfQYqfnKnrH7pOn980soYyhOJBILBAPr7LxCePgwPDcPtnsKYzY6jn32GSDJGQxl2gJeZI8HIkSO93129en1hNJrE3t27sWfXu3j3H9vQ/eSvCXQheaEY2Ugm3NPT7PYQC4dgG7WTrSZhabqMPNcKGRMR2wtL6EzvWZw+eUo4Agadhp8eKKuvXJKJx6gwMzsL99Q0crNy6CBcdKAa2EcdfG9gWXs7OQ2xIBG52UtIMMJUX1+fqqmpxAMPPYxDHx/G7MwkTp04gfs23Y229jahWtN0Mn6yCUnSIkXSWEv3yIu/e04xdoJEm1itNsx6ffjtsy+pwkFfSDZ96qcxYn8ucsJpGpM8XZDP58fUxKSQwrmzfXCM2dF7qgdne3oRoz3jcfJ0YtJ8iaSPhVToQu6p09bZClIdslTs2/s++kjVSkqKkJlpQGV1HQ6TaLVarbgnbt94O/KMubKOix8nKuze9R4xfjna2zpVD/70zuAvHunW8/p8WapJPecRWf0cACLmp3fIhngkAp1ej9lpN/LzCxGOhITHZGedogNtqi4j1XWbLJaVdF3INLdyYWGdd6nZ/LpOpyPjzsC1112LzQ8/hM4r1hIDR/DWm6+RWoVQXV2B226/FfmLjOREZBgMR+EH3/7Ot9B37lir6IhQnCb4I2mwi02fvBDIpSwoZWpPxFPyyccoNiOXPe2ZJlVzC1tMizBJhzJfHpcwwlRVUX1nPB57nU9ZGLxWR8Cr0P1EN9o6OjFGXu2d3TvwwYcHScRyTCZLRPloo527dl13xx0PHOf1MnUyQFmpFC5EJlgXufwpfVQOhoJwOcfhGB3DpGsCY6PkSUkLzpFqsVonSH3Fql/gRLR9GX3yyfuL1erMGopMoCGrnpkJJF3uqbjVak0ZDcaIyWQKLF1aFpGk3IRer095PJ7ptra2mDJd0P333BD85ePP6ZnZi1DTqcyKzIRcTtBBHDhyAg7yUD7PhIiW/L4AGhvqYBubhGWFRXjIZbVLMDBmLb2m85q5S/E/MrIQdO+Pbgk++vQzetZANnABV0hO3laGLzPCOXuk/Z8dE1J2T0yhoqoGEVLPMTL4qooKqCg0orAU7Y3V5JoHizds2DDJ6zB9wfoWluIqnQAlIPPNzNul0ltSG/HAzPAQOVeh3mxGHd1XXZ0dWFJWDHNVJdau7kJlRTkqqF5pKhaz8/LUZEQXST6ar4g2bbp3YtOP7ysK0+tQo3isBLtPDj5JKmrS/Vg0QiGWHBGzQUt06mqKwVQablORlBKiLjweMS4Hsn4MxEb0d627Sw6zib4SRp5/4oF1B86M3KJTZ6mf/c0Tm7R0qckSoQ0JnCwlVinRIKTBdXZKXJcLoiKAM7FqciDLjAWC3rilqU0SHQotOCP333fX48u7uro5fDfoJew/cAg6Ok1VKkoulT4CwtgkSUJmRobIVeRmGX8sHkMoFEIsFkeSQhW2mRS9faKUR0iQ+fkF0GmlHS0NDT/cuHHjPL+14Ixs/fsbZ4tLFzfyqUcifoyMjFEeRUtzk4i/tFoNffTep35WHYkecMxYWhAc9oicEmYsThdggiJpvkY+YkdAdtbVvowuE82i66+//sv/+bAQNDR8IanRktIr6DhsSatTRgZF0VRnL8Y2wXckh+YMmhlhMIpvE9LgGjl/cQHyOsGgW0FMEia7GRkaM61bt07c7qJ5IWnEOpBi42UM/AbR0Of1+4VBL8orQjgUxptv/ZmewXrx0mQJiacvTRHTiCmWSjwREypWXFqGjrZOGChMCoZmiWFSTWaE1o1FPMa6ulUirl9wRgYGzyUlnXylM0D+11GQYqcA3dglBaUIUeTsHLdDT8AYjJCAGM0JmzSVmBmus3qRWmXSQ66IYi5vwEvrJWg8PbaoO2xI5jYWNfrSsxeURkb6oyqNWmIF6e8fgM1qxTe+uR7OCSeFGw54PG4RhK67ah2NULaXMcsqpjAj6jI7GBgYQE9vL4qLi9DS0ohDH32KNWuuQCJP/dUxMmztG1erpWIG2f3oY9j0k5+hvHwxbPSGLysrE1L4/Ogx1Dc04LZb7xDPgxR5KBGAkndjBth0+B2vIbV74y9/EkafnZUtJBePR9Fz+gzM5qU0PDPHYrH4eV/ZuS8gJaCZZrBsE48/9SRmyJ32DQ+TTdBDiIEQ6CxyzQx8ZGSEolsPJujt4XC6MDgwCBu1DQ0N4cJAPwb6BxGlC1MEXYJIykOjaG6xwGg0Yv/+/XOx3YIzYq6sbXSOWU0fHjj46s8fehAVFFI01lSRwXtht9vp1eekB9qMbB+Er6G+BkYKBFltyhebZFdLHZdRoMivQy4z83aHHdbRERx4/z08/eRTqKqsVW3evHnun3QLzgjTbEj1YigYvjmVjCObvJOaAPH7YmjYisOHDyPbmCPsgKVy8lQvmpvryd3G4RqfJElqSWXU6LswgGLTErpU9fTM9dFcG3yzXno5usW/pvbs2WOSd5NpwW2kp6dnX1KVuObk0Y9IXSbxvRtvEvFThDzXWTL+UDCAmopqVFAQ6J7y0OsvLNwwg2dXzBck19ke+JHH/w+z20fJ6/mRnWPAwOnDiKe0aGxup1hN8/32Fau2874LzsiJk0fPlBSbmjgmIjNm10N3BLlR0vVA0I8IuWFj7iKygSGEw0GhXhy6cB+71QydVgSTkjYD4WgMvoAPazpXITs7G1qNHE3za1NDrt0fCqC2pl7wsOCqRSdKCxM62pBPmTdmtLxbhkSxlTbDUldnkbINuVJhfql0pqdPOt83JNltE9Ko1SkN9I9KktqgpRBEO3h+UGoyN0k5WTnn2Quya+Zbnh/vIhev+K8VAf8GptzdANhC4OYAAAAASUVORK5CYII=;" vertex="1" parent="1">
          <mxGeometry x="137.57999999999998" y="649.5" width="50" height="35" as="geometry" />
        </mxCell>
        <mxCell id="CSi7sFmbqDeR1GMIAVVv-79" value="" style="shape=image;verticalLabelPosition=bottom;labelBackgroundColor=default;verticalAlign=top;aspect=fixed;imageAspect=0;image=data:image/png,iVBORw0KGgoAAAANSUhEUgAAACkAAAAiCAYAAADCp/A1AAAAAXNSR0IArs4c6QAAAARnQU1BAACxjwv8YQUAAAAJcEhZcwAADsMAAA7DAcdvqGQAAAdwSURBVFhHzVh7UFTnFf/dvffuA9hlH7wWEIqI5SFUAhUlhFilxExTpZKYBESrIim2nTppR9PETqYN7R/pjDNNO9pxxjGTiWnTztiZtkxpM5lI22h4ZDRqCVHkIYk1gMuy7937+HruujqZiVRgN2l/DDt37/3ud37f+c53zu8smlr2sBdPnGYvnzy5A/+n4Da3tDMwwJlXhbODk+AFHo0bV+Od7pfE3t5eOTbufwpO+2hu62CyosJoTEIoFEL9Qy048cpfwTgOgo4DL4qw28xoqDH95pnv7muJvvk5IkpSw7aWPffDlPRPRVahqAoKS2vwxltXkJ2TgTm3l5ytglNpuCiAp7+CPBua7ndkNjc3T8Wm+Mxwh+RtbG17inG8AL1oQDjow9qNW3H8xN+g3VtTvQqXLg5D4XgYRD1yctMwNe2CoBexp6kouOOxbyTFpkkoPkXyNrbt2sckRSHHCWBMwhcrGnHqVC+SUy3w+YIUu3oIvATo9HBkOCBJMoIBBbxeQIrJBFmVkZFpR/MaceDxba1rYtMuCfOS1NDa3n5EMNg7/T4PBEGELMuob9yEXx3pIZIGVK4uxNDQJM0SAeMN0BuSEZEiNFaAjmNIz1oGv88HTsfj4QoJB3/w9H+1Nx8W9FLL7t35TDCPM4pVHW17JBxAWXUjbkxeR+/Zy0SCJuIEZGRY4Z3zIUyHUNAZKYrDSLXaEAwpEAwGFJcU49rER9i8sQz729YvmPCiVvbYrg6m1xsgUxhEwiEowSC+/sROzEwH8Hb/FYyMfgi7wwaDgcfMzBx0Oh0Rpfg18nTfSQuYRcWXSjH8wTgtyoDcbCtefbHtnhyW5P7Hd+1hhqRkhL0+NNRVwWw2Q2800tZ6ols7OzNNaUug8JCgUraIkGdt+dXQUSrrHxjH8NgUvF4/sp3Z8FI4UOwgPc2Gr31Z3L6rtfVkzMwdLImkhq3f3DnR9NX6PDkcofxqhJFIM1XV6gJcMzP0qUKkU8/ohkZcMyXoRPgCXgSImErEZVVCJCLDklMMSZeGN/8+hHS7DWb54vTRXxzO0OxoWDLJ+VBbU8l8lLr0OgHvj3503e/x5MQeRdF1uMvJBeUDRpNhP0fBTPWCiEagEOnS0lW4cOE9pKZao7vw/acPRvklnuTaKhYIEEnyYv/gpYTMT+cywaD9Nei1HKptcWIQN8l1GzewlWVlWihGodK/QAk91WK5dSMBiJukorIoIUdWVmddXQ3z+T2wW60wJJliI+LHp2Jm06OPpnunXGsDIV+tI935zKXz76K6qhzjVycozQhwz3pRVFSA0dExyn0OcElmKP4ABvr6OLMllTlsFlRVFsNsseHlV36XkJjkjr16jKWQoZ7uHvgDfgophhAl6XBYonrMKJ/N4Qu5mURuDu65IJLTcih9UIkMu16Qgu5DEYlxH05OICPNTqeUuybyct5DjXVYXb4Ke79963TGC92Fwb66mzc/pvJlpq8qEaDSR5XClCSSN/RUPQQY6SCkmOhaVCC5ryHD7IcJvoMpSSJnMXF4sLaSFhZAYWF6Xn7BMqSlZ6JgRSFyc3Omb5mJD9zBH+7/3jtnzh0nFU6p/+7Y8JV1TBPElHjVguX5KwXB2HX06LEntWcFK1eq1esbucv9p8n7IWRSWbRaLeh791+48e8bWmCGtHHxYEHbsa62mp09Mzjv2ILCFUxTPX4qkwpVHYctBcuys9B3fgge91zcW76g0+3MzFRil3eFFPKDpxApLVmOmuoyPLC+HjNuF9Vje2xEfFgQyVN/6BZil3eFa3bOmZuXiQuXRjDtCiASCsDlDiPLkRIbER8Scvoe2fwwM5sEXB65ivLyCgwPvR9V6jKleK3N6B84F5edJb3c81bPI9T6/kkmIkeOv4Zk5scI5dGK4hXR5zyvg55UUWvbdrx0+Of47evdnz/JQy88y/KX51OsZpOWtEAkKaYqEkbHx3BjagpXh66io7MdzgwnyTQOHo8H0x/PWurq6ryxKRaFJZF87ifPajIRNip/Jmq66HTDnJxEokJrd3WkKWWMUYJ/cG09pm7O0LZTfiXx63J7YEmmOKW3H6ipXbDtRZPs6voxo4JDMRehbzrqeUjMkuIRSXVr6seUkgJnVhbS7HZqg/mo6BWJvJaaVEWnte1IJpEs0MXvX38NP3rup/fksGiBcejQ89zklQlPQW4eGeSjq5Rk8pSkUNWyYs41i4vn36NaPkBN1wQkErTaryLXJyZht5jQtGkLGjdsii7MarPdmvQeWNJ2fxI723eyHdtbcGZggCZjUaV9333V+AtpgTTKkypT4fX4EAkE8OYbpzE76yaPynh78B/URvg7K8qqfh2bal7ETVLDtzo7fikpke9s2bIFw1c+IO9R+iENQMFHHpaoPE5BCcvo/uOf0XfuLLUKCoWBiqKCkgXZTwjJ2+h4qp1sqygpL6FeOwSVtGY4HMbIyBh+1vU8eZVRZeKj/UvR8tIF204oyU+ivb2dhSQ/GhoaMHltEk+2PhHd9sqK6s/M5pKxd+9uduDAvjvtxeIB/AeyCNsX37C3sQAAAABJRU5ErkJggg==;" vertex="1" parent="1">
          <mxGeometry x="209.58" y="650" width="41" height="34" as="geometry" />
        </mxCell>
        <mxCell id="CSi7sFmbqDeR1GMIAVVv-80" value="" style="shape=image;verticalLabelPosition=bottom;labelBackgroundColor=default;verticalAlign=top;aspect=fixed;imageAspect=0;image=data:image/png,iVBORw0KGgoAAAANSUhEUgAAAJoAAAAeCAYAAADU3gfZAAAAAXNSR0IArs4c6QAAAARnQU1BAACxjwv8YQUAAAAJcEhZcwAADsMAAA7DAcdvqGQAABL6SURBVHhe7Vp7jJzXVT/fPHdm9v3w2t51/FjbCQuKVJUmaZsSJyZSUUNEKiRQoiKExB8I0YgIBUERESilQREipUK00FZUbYqBgtPUpMVVWgxJaWqI46T1A8exve/n7M4+ZnZmZ+bj9zvn3plZx/VuyhqRsGf2fvfec88993F+99zzzaxs0RZt0Ra9Yyhw+Y0mjvO/NdY7gUKXc898eTNoM3W9Jbrhxh+8447O/fsG/zEaRA5EI6vVUBJSDathJC5SqaJUjYV+FtFIgI0oSTwaD4NKJAwgpw2QVTnsUyRSCarVSliJJsJopQSxRCgV9A1KQRCJhUFAOSysEkaCRBhWKxXojwYSVsJqORZGoUtWoSkaVCUIg4iUMZ8QfWLsBirjE7Fxq1GIlcLVKstBJQg4P86FPcrgRgX6BQNj3GqIaWBR0I06pFirZZhJyAGtFkGqQmVQDcqcMuYomA8oRBXarBfEMJD2iYKPCaBMWdYjbFJuGEbDakCFaKAMBqMMGlSW84lIEKlUime/cfTIo2Bxqmzz6YbTDQXaT//ML/7k9j3dX08mm7u4J7ZskJ5T2D8INNUIRXB0gyON/GuR6rCi2g9/7LtG39WEJljB+jFxfOUDhw3dgH7LaxMGgaXdYEOytQWFBgmjWiMyPxcTVn2NKo1sDn58NrN4rfVbV8q/SYn2IdX0v7m7lIrFaqm4+p8vPf/NB0ZGLsyCRcA1gu6G0TWmszn03nsf2HZgX//Xky2t78JhXjOON6ACzQpaZ6UmqDwzOCmw432VjD0MPA649dZrkkHDGZclN7aHDGvwV1r2ZAAxXr0Jkq5sPGoIbcaou1kBtHyYIMdSHst46hxYibBk8/AlD1J9WhFkIGMfD8S6PqOaKIky9QnrOHTxU5NTf/f80b95tFAoLIK7glRG0pki3RBaM6/Nottuu611/7vf9/mW5szPwW1HyeNANRBg8boiVNcAY00RErqDZLr1a4YHeQ1sklbJbuCZPn3U5NWmjpypTU1DP6uT75jITJZlAxOBV1Ol7e5Y0LCuG9vh/6wCqoPaSGFDeUfaChnL+WCOuvI8w5FbqLb4JmWhwr+6WiWuRWWjEhZKKytTF6786XPPHvkcmuaR8kglJF3CjaCrZv8/pw9/+MHdPTfd9OVUJnk7go8o4hKcIjOaegbImKls67whrGZ75UFW5ziqGWoNREC6ha4MQlHrbjyvQz0K5uINTn2UUGOTh4ySOr6Ghyg5i9WB5rXVc23xY3ndQL0GTWAqx7HrBd+7Tjpn1z+qc2PVySPnVFgjLxJhnAfyQGU7MnOOEZ13HWxud9jPMYuFcnl2eujIV7505PFSaXEKLIIN0euNAZt6m82iu+66q333LYOfjDe13JtIJDTK142yP67TNokfx4hgU5hsJ5yc60B510mTVimkxLp9EOjqhlO3JtYbyMvU2mtyTovWIQGG6mIdhmTdt/Gqom3J59xVHh+9wtimcq6v1u16C1DQVONTD/o6HuXxouT2xNoJMisbL4pLIcpxr06UibLs2imPsvLYxjL4bIvGkKKUs5TEFGItHfu7uzpy58+8dh5bcUPjNax0c+iBhx7q7+sb+Eo83fSeBKyBFzP1FBWeOJ02HhhNi+rhzJepp1BvQDltVTm8EGr7tUhbsJEbJZWsyXutzHHy/ZhK0GwvbNYJTb7V4jY9Otq2phtIW5VXB7x1cYLksaplPjg6wUxAOIZvABEg7EF5gkZBqWWqYpk8V0YiWGuRMMbkgSB5FuVqCR+2smu5sFweGx/96y9+7jNPFIvFGbALSD5m2zTaFI/2oQ892DGwf+AvUqnEPfF4ImpXERqQPIDcdtcJbbZco9qG6KeBrw3W2zZKC1pvNOLV5Dl+LvbNBOYBa7xJmgxNaFOVrDjdDdKNPdXAVtIPIUiPQk8XRRPBAWurwc07st15L1dWEc1NB+vqfVybyjf09Xosp/dyCZ5KZYDCKLyZeq4Ykno7S+TFwIvBm8WZM0Vj/IolSLd27N/euy37/dOnXseC6NUIMtuwTSIs50emyEc++tH+3pbOjyUSTYeqyfh+3JWRaoWeCh+NceDRqvw6gAaGD/PAQG7fBlm9Lu+I8sg4Oe2rTDMKa8YnAw9trC9DS5AzASMaif1Wy/zOy4xIooiVTd6uOXgG9cYqUpdl2YruqMOwLGN9NDQb0dtkCDCO6Doo3xr0zz2UODcqVw+Gcj1nH8ohZ5kf1P2V6+WiqKM36pAkyDkXr1f/CFzIQs5EAUoUCGbahmLwZGFcKqXx0akXzpx75VPnTp/+3rlz5/j1Bz0bl+5240cnDn1dQtwVu/V9t3bIUrPWE4lSMDm5LAv57K19N+37+e27dvxKUK3icCSCcrkslUoFRgKosAh+RVkhgFBXQ5GPvFqtaKyt3kYT/yjheJ5cmc96ySZNOTWEVlwLHnUoGtFAPiquq3Z1l9fvnGsQxqCc78shG8s0shLKBmjj0OgakGtZn1qmR/Xj69SYoZ1xk8Z9QAz1KNAcmDSRr32sjUBjb1824HFsU8o+gJjq1zbqUyBSl/WxMakUbwGrqyF5sxPTPxgdGzp65cLZp7fv2VPobm6upNPpajKZrBw7dix74sQJH8e9JXLD/HD6q6f/9rZ4WP6jS1eGPxvCz+7o2/5Qfnlx8J+/9mzL7v0HWh9++LcSIYDD00GQEWD8wrMM70EPFoZoUy/HTWadIDQgsqweTz0IvRzAiTqJoLXpOU9IGcC0aq4QZfZxOdtUB9/zYFwYU6UooEQ9Nh43Ww3BzWez8iDvdhxmUJ1WYc3qajgay/NdsuraMq8sBQ0/HAtJr1U1tpNVPnS6ugcMnnpdskye6mQb+wcM7lk28HCWMcrx6sSyFIqqtz4eNdZ16IxQ5i8s5vno7diNHdnv5Muvhqf+42ThxwdvyXZ1dM0Vy6XvJKLx1XRL5j0zs/OP3PfBwy9pR+/YaYINkM3iOvTxjz85uOOm7Z95/ezZh5dLpeq+PTf/pkTKv/TtbzwnO/cMyO/83mMSw2QLKwUpr65KoVDAQiJSXFmB90tIsiku83M55dGoWKKUSiWJxGOyWlxVr1dEX3qVplRalpaWpDmTUcAQwAQldUURTxSKBWlKJHXTCLjyakl3lZtegSwXU4BsW1u78q5eHQ0KdbKK8alTvQR0EaS5+TnJLy9L367d0tzcjDaT9/0AHx1Xyw3Jt5MqOBzDVy5JZ1e36o7H45h/RederZSlq6cHsZH91MU+OkeQvmW68XwiaPjMZmexL0kprZalo7NTFrLzEonx6ovISqkomUwz9rhJzd2UalL91AoVOoe6Pq9fh7R2lpGwLB2NB/0LT/+9nHvtFbnnnrulEsiZl1584U9gx/zdhw49+soPzj/yG7/2qyfRiyCjJ9jwW+q6LwMf+MDhVHtn6+9mMpkH27b1PhSLVN9dKVdikyNXJJ1uljvefydOVUyGhi7LpdfPy6VLQ1KAwYaGRyQ7k5XO7i458+prMj09KRdfvyjzuQU5c/plyQNcYyMjMjk2Jm9cvCDff+1VSaVScvrUywrQ7MyMAm1peUlKy4ty8nvflQvnz6oHzGZnZG5uVi6cPSczMxOSy+UEr+j8iUVmpyalo3ubxircWHoxT1ZCrAa5xcVFxCYFqcCAJRyQFIyUSCYlEU8gT5ikdqAOsw71XY8qANPCYg4dq9LR0YE8UJ0EFA9RjD/weh30pMi8TmaWHIAxNn0pD1BTOqWATeCQ0XvFAGDyCCqCaxVrmJocV9DFweO06dWppOadHUG7K+kUlHQKePBGOP6tEzI9NioDBw9Af7qzv3/34f6BvT+Lq7P92DPPHjl9+tQSpD1uNBKy4vWpPuoPoaeeeqq3tb39dDmUXgSN+iMyPcIrL70oEm+Sjz32uLS1tMJTwPvwigQQ9DrE+HZ1YrPAL+O005uQqIMug1ctN8O/QDD37TxdlbLxeQ3RW1DWB7m8YlfBYxvLPL00tBmu7i3WbjMJ8ymvytToiHpV9ZSLC5KCFy0W8tK394DyagDQB3W56xNJr8Wad1NfgRwSGGz0jf+Snu3bZXZ6SufU1tEpVXhe7kFzW4d63B54Nno79aiqw+ar8RP04KnetVxalfzSvLS2dcr0xKjOLYeDlcQBTyFlp8YkA51pgG1+dlL6994MoNXBXJ+vJfJ51fo2y+HNwGK9jH15/IknZWZ8SO6//wFJA7i6PsiUI5GFT/zhY7/w/PHjw+jGr0AWkJaRikjrgm1dj/Zjt9+ebE00fwSxVlcZJ0eB4wy1UijKnXcf1oXq6SDACC5MzAxMoLnFIL5QVw4D8dWb8ZHFG26jaTyunQujHHJ6JfvSkXEPv4h0de1jsQkNxMQYi3IKAlVEw9ssSDYG+Rw4JpnWNmluaZcMrsn2zi7JtLRJa0dXbR6UNy2ckl2xOj330PjO6TN5bCbkWqErgauMOts7uwGIjKRbWgCydmlqSuFabtG1rNGverRkulCKJ+C14OEJsibo69jWqyBqae8CAFoliT1v7+qBF8ugnMbce3QfPHmd5GhJFduYOnVlmYzLpIwD/p0XXpDKSl4GDhyEnfivLrQpwptSMX/smaPHJyYm/Jsof7IiyDb0crAu0Pbv2hXp3tZ9H1zV3moVb5XwMow3ZqbGJZ/Py/sPHZZMOq1xjv5nAz6MuwjKUVyfAUA1OzImcSxicWERLt5O+szMNG8YmRgfw0LxtjM7DVcdl6mJMWgIZB5XJ7/hnhwfxzW3BC9agJeY0WtjGeOu4OqdmpwEWFoUQNdaqQcaN1QPgNYZ31VkHFd9qbAELwa9ExN6nc5NwkO0d1gw7nQ6G6jByK+9NCDXInPlYDzsy+WL5zHHpEyND2MNU3yrQSixIAvzs3rsJyYnODGLpTzgnALNOUfkxZUS1r0g48MXAaCoTIwM69U5OToEL7eoYB0fviLZ+ayaefTKRXjPLtXnSdeMnDeLclmnfvL0SbI62SsY88UTz2OtZdk7cFCBy9uJjbns3OzRo//wrwg5+DMVE72a/3LXlFyH1gXazeVysG1w8D6A7CBnuQzDMADI4mpYAfLvuPNuBN8tXA2x7z7Y0OFL8uTv/7bGTjL0hnSdOyNLCGbncvMSBzDnELPxVHIDo3wxgK5EIgXgjeom5hCDJZrSaqDLVy5LN/ouYeMZPy0u5DSOY9zXjWuotrk0mmY0Hj2cAaaW1CsFsrQwLxOIDfPwyPQSEwAsr+GF5by0wLPRg6gO6GI/r5P72ViveViMQx5jxbGxce2/66Z9iE+3SRoeLN3cKi3waCl4nvb2dtwAaf1qAUqc3vqcVTc+MexJKpOSzp5e9MvoCwaB1gYvmUGowheADpQ7AS7Gf/Ru+n2Z19Og13Irc/6uoskyPEDL+WX5t29/Ey93Ijt376N9q0s5XF9wXvPzuYmvfvWZf8eLHIFFgDFW4++jmwO0nsHBYO9A/08NvXH5k3/2qT//g+Vs9nTv7p33FnILsRWA7l2336kg4FAGMRvz1ZPflffe+0HJTc/KIeRN8BTlHX2yXFiRmelpSQFUjK0Yq0Tg9cbg9XjuVhDDLMGDdXZ1ypXLl2QZ5QyunzzfPAGuAsCwDTEQZeLweF1ddortGuZrOzfPAMYvM2ttvJG1HNHrrHdnH9JO6ezskB07duIM4a0X11USQGZQbfpgOO1rBrEYysoEmNdtvAB609LX3yetuJYJQi9v4/P6dde+66N9+cHcrO6Agv2rfcVBfq3N2ut19qWc9fE6SNqG5MnqLLDseEysIFHn4tKynPiXb0kyEZPevn758he/8Nkn/vgTn5+dnbnQ17ez+/jx4y8jrua/FRFk/BejDQPNDXl9+vVHHr4/k0r98tzsfKI5leiuxmLbc9MTTdnsnBy85dbZgT27cVOWTZfzycy45BJLeJNQNt6cjCyW05q+EKCrekTMmPcp5m1tXl1Fr1leyWi3fz/lgynC797IQBU5Xg204FjrEyd5lbCz1RqKuP/ARXjnCVEnqOGo8nsuBqiwuyPEmZqD4XSiFX30WTO4sSBJD4mqsp28txBeWzSnI9RB2ccLAS3oCjLQKaumAISBtD0aC+NBtAYKOE2QLQhnVhYWlorP/dPXwp7eru6DB38iXSxX8/nC4iI8amV4ZOjUpz/9l8fhHPgSMI00joR7W/+fbd3t9ktdjzjNFBJcl3Qjtbt6E1ISibNtWNn6CN+i/9ukh41n1kDEmIyBP0HFN00CjGDLIW3o/9g2CjQOyy+X+DsUQcacIPOJbR5oWyB7+1OjDVkmmAgyJsZnvDb5D5MEHUG4rs03CjTK0WvRe6WRvCcjwJj4HkwZDrgFtLc/eRt6mzIOI6D8VxoEG+OzDX+9sVGgkeixCDaCijmT3vxIbNsC2juHGoFGYp2AYvKgY2J93WuT9FaARlkmDyqfX61jC2jvLKJ9vU2ZE1hMLPu0Ll0Nko1QY59r9d/QwFv0tqFGGzfadsvOW7RFW/T/kkT+Gx84FbWst2CqAAAAAElFTkSuQmCC;" vertex="1" parent="1">
          <mxGeometry x="353" y="651.56" width="138" height="26.88" as="geometry" />
        </mxCell>
        <mxCell id="CSi7sFmbqDeR1GMIAVVv-81" value="" style="group" vertex="1" connectable="0" parent="1">
          <mxGeometry x="359" y="574" width="121" height="40" as="geometry" />
        </mxCell>
        <mxCell id="CSi7sFmbqDeR1GMIAVVv-72" value="APP" style="rounded=0;whiteSpace=wrap;html=1;fillColor=#cce5ff;strokeColor=none;" vertex="1" parent="CSi7sFmbqDeR1GMIAVVv-81">
          <mxGeometry x="4" width="51" height="20" as="geometry" />
        </mxCell>
        <mxCell id="CSi7sFmbqDeR1GMIAVVv-73" value="边缘计算框架" style="rounded=0;whiteSpace=wrap;html=1;fillColor=#eeeeee;strokeColor=none;" vertex="1" parent="CSi7sFmbqDeR1GMIAVVv-81">
          <mxGeometry y="24" width="121" height="16" as="geometry" />
        </mxCell>
        <mxCell id="CSi7sFmbqDeR1GMIAVVv-74" value="算法应用" style="rounded=0;whiteSpace=wrap;html=1;fillColor=#cce5ff;strokeColor=none;" vertex="1" parent="CSi7sFmbqDeR1GMIAVVv-81">
          <mxGeometry x="61" width="51" height="20" as="geometry" />
        </mxCell>
        <mxCell id="CSi7sFmbqDeR1GMIAVVv-82" value="" style="group" vertex="1" connectable="0" parent="1">
          <mxGeometry x="141.58" y="575.5" width="121.00000000000003" height="42.5" as="geometry" />
        </mxCell>
        <mxCell id="CSi7sFmbqDeR1GMIAVVv-76" value="算法应用" style="rounded=0;whiteSpace=wrap;html=1;fillColor=#cce5ff;strokeColor=none;" vertex="1" parent="CSi7sFmbqDeR1GMIAVVv-82">
          <mxGeometry x="57" width="51" height="20" as="geometry" />
        </mxCell>
        <mxCell id="CSi7sFmbqDeR1GMIAVVv-77" value="边缘计算框架" style="rounded=0;whiteSpace=wrap;html=1;fillColor=#eeeeee;strokeColor=none;" vertex="1" parent="CSi7sFmbqDeR1GMIAVVv-82">
          <mxGeometry x="-10" y="26.5" width="131" height="16" as="geometry" />
        </mxCell>
        <mxCell id="CSi7sFmbqDeR1GMIAVVv-75" value="APP" style="rounded=0;whiteSpace=wrap;html=1;fillColor=#cce5ff;strokeColor=none;" vertex="1" parent="1">
          <mxGeometry x="132.58" y="575" width="51" height="20" as="geometry" />
        </mxCell>
        <mxCell id="CSi7sFmbqDeR1GMIAVVv-83" value="" style="shape=flexArrow;endArrow=classic;startArrow=classic;html=1;rounded=0;endWidth=2.3975993998499625;endSize=2.9530201342281877;startWidth=2.3975993998499625;startSize=3.9144186046511624;width=3.225806451612903;" edge="1" parent="1">
          <mxGeometry width="100" height="100" relative="1" as="geometry">
            <mxPoint x="196.41" y="648" as="sourcePoint" />
            <mxPoint x="196.41" y="618" as="targetPoint" />
          </mxGeometry>
        </mxCell>
        <mxCell id="CSi7sFmbqDeR1GMIAVVv-84" value="" style="shape=flexArrow;endArrow=classic;startArrow=classic;html=1;rounded=0;endWidth=2.3975993998499625;endSize=2.9530201342281877;startWidth=2.3975993998499625;startSize=3.9144186046511624;width=3.225806451612903;" edge="1" parent="1">
          <mxGeometry width="100" height="100" relative="1" as="geometry">
            <mxPoint x="419.33" y="648" as="sourcePoint" />
            <mxPoint x="419.33" y="618" as="targetPoint" />
          </mxGeometry>
        </mxCell>
        <mxCell id="CSi7sFmbqDeR1GMIAVVv-85" value="应&lt;br&gt;用&lt;br&gt;层" style="rounded=0;whiteSpace=wrap;html=1;fillColor=#cce5ff;strokeColor=none;" vertex="1" parent="1">
          <mxGeometry x="560" y="321" width="30" height="70" as="geometry" />
        </mxCell>
        <mxCell id="CSi7sFmbqDeR1GMIAVVv-86" value="平&lt;br&gt;台&lt;br&gt;层" style="rounded=0;whiteSpace=wrap;html=1;fillColor=#cce5ff;strokeColor=none;" vertex="1" parent="1">
          <mxGeometry x="560" y="405" width="30" height="65" as="geometry" />
        </mxCell>
        <mxCell id="CSi7sFmbqDeR1GMIAVVv-87" value="感&lt;br&gt;知&lt;br&gt;计&lt;br&gt;算&lt;br&gt;层" style="rounded=0;whiteSpace=wrap;html=1;fillColor=#cce5ff;strokeColor=none;" vertex="1" parent="1">
          <mxGeometry x="560" y="560" width="30" height="130" as="geometry" />
        </mxCell>
        <mxCell id="CSi7sFmbqDeR1GMIAVVv-88" value="网&lt;br&gt;络&lt;br&gt;层" style="rounded=0;whiteSpace=wrap;html=1;fillColor=#cce5ff;strokeColor=none;" vertex="1" parent="1">
          <mxGeometry x="560" y="485" width="30" height="65" as="geometry" />
        </mxCell>
      </root>
    </mxGraphModel>
  </diagram>
  <diagram id="PdZkRd0V1vASnMJrNfWp" name="第 2 页">
    <mxGraphModel dx="1434" dy="746" grid="1" gridSize="10" guides="1" tooltips="1" connect="1" arrows="1" fold="1" page="1" pageScale="1" pageWidth="827" pageHeight="1169" math="0" shadow="0">
      <root>
        <mxCell id="0" />
        <mxCell id="1" parent="0" />
      </root>
    </mxGraphModel>
  </diagram>
</mxfile>
